<svg width="251.17" height="1250" xmlns="http://www.w3.org/2000/svg">

 <g>
  <title>Layer 1</title>
  <g transform="rotate(90 125.585 625)" data-name="Layer 2" id="Layer_2">
   <g data-name="Layer 1" id="Layer_1-2">
    <path id="svg_1" fill="#ffffff7f" d="m-424.92987,624.05502a18.34,18.34 0 0 0 17.24,19.36l1,0a18.3,18.3 0 1 0 -18.29,-19.35l0.05,-0.01z"/>
    <path id="svg_2" fill="#ffffff7f" d="m-493.16987,619.41502a5.91,5.91 0 1 0 5.57,6.24a5.9,5.9 0 0 0 -5.57,-6.24z"/>
    <path id="svg_3" fill="#ffffff7f" d="m-426.08987,517.84502a5.92,5.92 0 1 0 -8,-2.62a5.93,5.93 0 0 0 8,2.62z"/>
    <path id="svg_4" fill="#ffffff7f" d="m-407.51987,550.22502a9.14,9.14 0 1 0 -12.28,-4.05a9.14,9.14 0 0 0 12.28,4.05z"/>
    <path id="svg_5" fill="#ffffff7f" d="m-470.00987,572.49502a7.53,7.53 0 1 0 -2.16,-10.42a7.53,7.53 0 0 0 2.16,10.42z"/>
    <path id="svg_6" fill="#ffffff7f" d="m-458.87987,616.08502a9.14,9.14 0 1 0 8.61,9.65a9.15,9.15 0 0 0 -8.61,-9.65z"/>
    <path id="svg_7" fill="#ffffff7f" d="m-469.00987,677.53502a7.53,7.53 0 1 0 10.12,3.33a7.53,7.53 0 0 0 -10.12,-3.33z"/>
    <path id="svg_8" fill="#ffffff7f" d="m-433.47987,597.19502a10.76,10.76 0 1 0 -3.1,-14.9a10.75,10.75 0 0 0 3.1,14.9z"/>
    <path id="svg_9" fill="#ffffff7f" d="m-320.75987,549.50502a9.15,9.15 0 1 0 -2.66,-12.67a9.14,9.14 0 0 0 2.66,12.67z"/>
    <path id="svg_10" fill="#ffffff7f" d="m-301.99987,517.22502a5.92,5.92 0 1 0 -1.71,-8.19a5.92,5.92 0 0 0 1.71,8.19z"/>
    <path id="svg_11" fill="#ffffff7f" d="m-319.31987,606.63502a18.3,18.3 0 1 0 -2.1,36.55c0.35,0 0.71,0 1.06,0a18.3,18.3 0 0 0 13.64,-30.49a18.08,18.08 0 0 0 -12.6,-6.06z"/>
    <path id="svg_12" fill="#ffffff7f" d="m-401.50987,595.92502a18.23,18.23 0 0 0 16.36,10.07a18.31,18.31 0 0 0 16.34,-26.58a18.24,18.24 0 0 0 -16.36,-10a18.31,18.31 0 0 0 -16.34,26.51z"/>
    <path id="svg_13" fill="#ffffff7f" d="m-258.00987,572.47502a7.53,7.53 0 1 0 -10.12,-3.34a7.54,7.54 0 0 0 10.12,3.34z"/>
    <path id="svg_14" fill="#ffffff7f" d="m-304.41987,578.30502a10.76,10.76 0 1 0 14.45,4.77a10.75,10.75 0 0 0 -14.45,-4.77z"/>
    <path id="svg_15" fill="#ffffff7f" d="m-364.19987,514.46502a7.53,7.53 0 1 0 -7.09,-7.94a7.53,7.53 0 0 0 7.09,7.94z"/>
    <path id="svg_16" fill="#ffffff7f" d="m-364.27987,561.85502a10.76,10.76 0 1 0 -10.14,-11.36a10.77,10.77 0 0 0 10.14,11.36z"/>
    <path id="svg_17" fill="#ffffff7f" d="m-422.57987,671.69502a10.76,10.76 0 1 0 -14.45,-4.76a10.76,10.76 0 0 0 14.45,4.76z"/>
    <path id="svg_18" fill="#ffffff7f" d="m-357.32987,577.55502a18.3,18.3 0 1 0 15.33,-8.27a18.32,18.32 0 0 0 -15.33,8.27z"/>
    <path id="svg_19" fill="#ffffff7f" d="m-325.50987,654.08502a18.3,18.3 0 1 0 -16.34,26.54a18.5,18.5 0 0 0 8.24,-2a18.31,18.31 0 0 0 8.1,-24.54z"/>
    <path id="svg_20" fill="#ffffff7f" d="m-293.52987,652.80502a10.76,10.76 0 1 0 3.09,14.9a10.78,10.78 0 0 0 -3.09,-14.9z"/>
    <path id="svg_21" fill="#ffffff7f" d="m-258.48987,625.31502a9.14,9.14 0 1 0 -9.65,8.61a9.15,9.15 0 0 0 9.65,-8.61z"/>
    <path id="svg_22" fill="#ffffff7f" d="m-233.16987,618.80502a5.92,5.92 0 1 0 5.57,6.25a5.93,5.93 0 0 0 -5.57,-6.25z"/>
    <path id="svg_23" fill="#ffffff7f" d="m-257.00987,677.50502a7.53,7.53 0 1 0 2.17,10.43a7.53,7.53 0 0 0 -2.17,-10.43z"/>
    <path id="svg_24" fill="#ffffff7f" d="m-425.00987,732.77502a5.92,5.92 0 1 0 1.7,8.2a5.92,5.92 0 0 0 -1.7,-8.2z"/>
    <path id="svg_25" fill="#ffffff7f" d="m-300.92987,732.15502a5.92,5.92 0 1 0 7.95,2.62a5.91,5.91 0 0 0 -7.95,-2.62z"/>
    <path id="svg_26" fill="#ffffff7f" d="m-369.68987,672.41502a18.3,18.3 0 1 0 -15.32,8.27a18.21,18.21 0 0 0 15.32,-8.27z"/>
    <path id="svg_27" fill="#ffffff7f" d="m-406.25987,700.50502a9.14,9.14 0 1 0 2.64,12.66a9.15,9.15 0 0 0 -2.64,-12.66z"/>
    <path id="svg_28" fill="#ffffff7f" d="m-363.58987,735.53502a7.53,7.53 0 1 0 7.09,7.95a7.53,7.53 0 0 0 -7.09,-7.95z"/>
    <path id="svg_29" fill="#ffffff7f" d="m-363.50987,688.15502a10.76,10.76 0 1 0 10.09,11.35a10.75,10.75 0 0 0 -10.09,-11.35z"/>
    <path id="svg_30" fill="#ffffff7f" d="m-319.49987,699.77502a9.15,9.15 0 1 0 12.29,4a9.13,9.13 0 0 0 -12.29,-4z"/>
    <path id="svg_31" fill="#ffffff7f" d="m-117.55987,581.76502c17.72,0 30.13,9.74 30.13,27.82l23.21,0c0,-31.72 -23.39,-47 -53.69,-47c-37.22,0 -58.84,20.21 -58.84,62.92c0,43.77 21.62,62.91 58.84,62.91c30.66,0 53.69,-14.88 53.69,-46.61l-22.33,0c0,17.72 -12.23,27.47 -31,27.47c-24.64,0 -36,-13.65 -36,-42l0,-3.54c0.02,-27.8 11.53,-41.97 35.99,-41.97z"/>
    <path id="svg_32" fill="#ffffff7f" d="m-2.84987,564.74502l-47.32,121.58l23.4,0l9.74,-26.41l55.61,0l10,26.41l24.46,0l-47.35,-121.58l-28.54,0zm-7.09,76l12.41,-33.33c2.48,-6.55 6.91,-20.73 7.8,-23.21l0.88,0c0.89,2.48 5.32,16.83 7.8,23.21l12.4,33.32l-41.29,0.01z"/>
    <path id="svg_33" fill="#ffffff7f" d="m199.58013,601.60502c0,-22.5 -12.94,-36.86 -39.7,-36.86l-64.16,0l0,121.58l22.69,0l0,-47l37.74,0l23,47l24.81,0l-26,-50.51c14.35,-5.67 21.62,-17.72 21.62,-34.21zm-41.48,18.61l-39.69,0l0,-36.15l39.69,0c12.23,0 18.61,6.56 18.61,17.54c0,11.53 -6.91,18.61 -18.61,18.61z"/>
    <path id="svg_34" fill="#ffffff7f" d="m279.16013,564.74502l-48.58,0l0,121.58l48.56,0c36.68,0 59,-19.14 59,-60.79s-22.3,-60.79 -58.98,-60.79zm35.8,62.56c-0.18,26.59 -12.76,39.7 -35.8,39.7l-25.87,0l0,-82.94l25.87,0c23,0 35.8,13.12 35.8,39.7l0,3.54z"/>
    <path id="svg_35" fill="#ffffff7f" d="m397.58013,564.74502l-47.34,121.58l23.39,0l9.75,-26.41l55.65,0l9.92,26.41l24.46,0l-47.32,-121.58l-28.51,0zm-7.09,76l12.39,-33.33c2.48,-6.55 6.91,-20.73 7.8,-23.21l0.9,0c0.88,2.48 5.32,16.83 7.8,23.21l12.4,33.32l-41.29,0.01z"/>
    <path id="svg_36" fill="#ffffff7f" d="m577.12013,637.05502c0,2.3 0.35,8.5 0.35,9.57l-0.88,0.35c-0.53,-0.7 -4.08,-6.91 -6,-9.74l-52.81,-72.49l-21.65,0l0,121.58l21.8,0l0,-72.84c0,-3 -0.36,-8.86 -0.36,-9.75l0.89,-0.53c0.53,0.71 3.19,5.85 6,9.93l53.17,73.19l21.26,0l0,-121.58l-21.79,0l0,72.31l0.02,0z"/>
    <path id="svg_37" fill="#ffffff7f" d="m689.26013,562.62502c-38.1,0 -61.14,20.2 -61.14,62.91s23,62.91 61.14,62.91s61.32,-20.2 61.32,-62.91s-23.22,-62.91 -61.32,-62.91zm38.1,64.86c0,27.82 -13.29,41.82 -38.1,41.82c-24.63,0 -37.92,-14 -37.92,-41.82l0,-3.72c0,-27.83 13.47,-42 37.92,-42c24.64,0 38.1,14.17 38.1,42l0,3.72z"/>
   </g>
  </g>
 </g>
</svg>